<?xml version="1.0" encoding="UTF-8" standalone="no"?>
<!DOCTYPE svg PUBLIC "-//W3C//DTD SVG 1.1//EN" "http://www.w3.org/Graphics/SVG/1.1/DTD/svg11.dtd">
<!-- Generated by Microsoft Visio, SVG Export identifying-blocking-ports.svg Page-1 -->
<svg xmlns="http://www.w3.org/2000/svg" xmlns:xlink="http://www.w3.org/1999/xlink" xmlns:ev="http://www.w3.org/2001/xml-events"
		xmlns:v="http://schemas.microsoft.com/visio/2003/SVGExtensions/" width="7.0661in" height="3.41972in"
		viewBox="0 0 508.759 246.22" xml:space="preserve" color-interpolation-filters="sRGB" class="st22">
	<v:documentProperties v:langID="2057" v:viewMarkup="false"/>

	<style type="text/css">
	<![CDATA[
		.st1 {fill:none;stroke:none;stroke-linecap:round;stroke-linejoin:round;stroke-width:0.75}
		.st2 {fill:#000000;font-family:Arial;font-size:0.833336em;font-weight:bold}
		.st3 {font-size:1em;font-weight:normal}
		.st4 {fill:#126d99;stroke:#ffffff;stroke-linecap:round;stroke-linejoin:round;stroke-width:0.25}
		.st5 {stroke:#ffffff;stroke-linecap:round;stroke-linejoin:round;stroke-width:0.25}
		.st6 {fill:#1684b8;stroke:#a5a5a5;stroke-linecap:round;stroke-linejoin:round;stroke-width:0.25}
		.st7 {fill:#ffffff;stroke:none;stroke-linecap:round;stroke-linejoin:round;stroke-width:0.25}
		.st8 {fill:#ffffff;stroke:#ffffff;stroke-linecap:round;stroke-linejoin:round;stroke-width:0.25}
		.st9 {fill:#000000;stroke:#ffffff;stroke-linecap:round;stroke-linejoin:round;stroke-width:0.25}
		.st10 {fill:#f2f2f2;font-family:Arial;font-size:0.75em;font-weight:bold}
		.st11 {fill:#789440;stroke:#ffffff;stroke-linecap:round;stroke-linejoin:round;stroke-width:0.25}
		.st12 {fill:#9dbb61;stroke:#a5a5a5;stroke-linecap:round;stroke-linejoin:round;stroke-width:0.25}
		.st13 {fill:#a5a5a5;font-family:Arial;font-size:0.833336em;font-weight:bold}
		.st14 {stroke:#000000;stroke-linecap:round;stroke-linejoin:round;stroke-width:1.5}
		.st15 {stroke:#bfbfbf;stroke-linecap:round;stroke-linejoin:round;stroke-width:1.25}
		.st16 {fill:#a5a5a5;font-family:Arial;font-size:0.75em}
		.st17 {fill:#789440;stroke:none;stroke-linecap:round;stroke-linejoin:round;stroke-width:0.24}
		.st18 {fill:#ffffff;font-family:Arial;font-size:0.75em}
		.st19 {fill:#ffc000;stroke:none;stroke-linecap:round;stroke-linejoin:round;stroke-width:0.24}
		.st20 {fill:#000000;font-family:Arial;font-size:0.75em}
		.st21 {fill:#c05046;stroke:none;stroke-linecap:round;stroke-linejoin:round;stroke-width:0.24}
		.st22 {fill:none;fill-rule:evenodd;font-size:12px;overflow:visible;stroke-linecap:square;stroke-miterlimit:3}
	]]>
	</style>

	<g v:mID="0" v:index="1" v:groupContext="foregroundPage">
		<title>Page-1</title>
		<v:pageProperties v:drawingScale="0.0393701" v:pageScale="0.0393701" v:drawingUnits="24" v:shadowOffsetX="8.50394"
				v:shadowOffsetY="-8.50394"/>
		<g id="group1205-1" transform="translate(0.375,-0.399933)" v:mID="1205" v:groupContext="group">
			<title>Sheet.1205</title>
			<g id="shape1108-2" v:mID="1108" v:groupContext="shape" transform="translate(-7.99361E-15,-9.12294)">
				<title>Sheet.1108</title>
				<desc>Root Bridge 28673:001A.2B3C.4D5E</desc>
				<v:textBlock v:margins="rect(4,0,4,0)" v:tabSpace="42.5197"/>
				<v:textRect cx="56.7962" cy="232.311" width="113.6" height="27.8174"/>
				<rect x="0" y="218.402" width="113.592" height="27.8174" class="st1"/>
				<text x="56.38" y="229.31" class="st2" v:langID="1033"><v:paragraph v:horizAlign="2"/><v:tabList/>Root Bridge<v:newlineChar/><tspan
							x="4.06" dy="1.2em" class="st3">28673:001A.2B3C.4D5E</tspan></text>			</g>
			<g id="group1109-6" transform="translate(221.837,-193.719)" v:mID="1109" v:groupContext="group">
				<title>Sheet.1109</title>
				<g id="group1000-7" v:mID="1000" v:groupContext="group">
					<title>SW-SVG.1017</title>
					<g id="shape1001-8" v:mID="1001" v:groupContext="shape" transform="translate(0.545204,-0.56584)">
						<title>Sheet.1001</title>
						<path d="M0 233.93 L0 246.22 L48.96 246.22 L48.96 233.93 L0 233.93 L0 233.93 L0 233.93 Z" class="st4"/>
					</g>
					<g id="shape1002-10" v:mID="1002" v:groupContext="shape" transform="translate(0.545204,-0.56584)">
						<title>Sheet.1002</title>
						<path d="M0 233.93 L0 246.22 L48.96 246.22 L48.96 233.93 L0 233.93 L0 233.93 L0 233.93" class="st5"/>
					</g>
					<g id="shape1003-13" v:mID="1003" v:groupContext="shape" transform="translate(49.5022,-0.56584)">
						<title>Sheet.1003</title>
						<path d="M0 233.93 L14.88 218.97 L14.88 231.25 L0 246.22 L0 233.93 L0 233.93 L0 233.93 Z" class="st4"/>
					</g>
					<g id="shape1004-15" v:mID="1004" v:groupContext="shape" transform="translate(49.5022,-0.56584)">
						<title>Sheet.1004</title>
						<path d="M0 233.93 L14.88 218.97 L14.88 231.25 L0 246.22 L0 233.93 L0 233.93 L0 233.93" class="st5"/>
					</g>
					<g id="shape1005-18" v:mID="1005" v:groupContext="shape" transform="translate(0.545204,-12.8514)">
						<title>Sheet.1005</title>
						<path d="M48.96 246.22 L63.83 231.25 L14.88 231.25 L0 246.22 L48.96 246.22 L48.96 246.22 L48.96 246.22 Z"
								class="st6"/>
					</g>
					<g id="shape1006-20" v:mID="1006" v:groupContext="shape" transform="translate(0.545204,-12.8514)">
						<title>Sheet.1006</title>
						<path d="M48.96 246.22 L63.83 231.25 L14.88 231.25 L0 246.22 L48.96 246.22 L48.96 246.22 L48.96 246.22"
								class="st5"/>
					</g>
					<g id="shape1007-23" v:mID="1007" v:groupContext="shape" transform="translate(29.5197,-15.8669)">
						<title>Sheet.1007</title>
						<path d="M1.78 242.31 L0 244.1 L12.77 244.1 L10.55 246.22 L20.87 243.32 L15.43 241.19 L14.32 242.31 L1.78
									 242.31 L1.78 242.31 L1.78 242.31 Z" class="st7"/>
					</g>
					<g id="shape1008-25" v:mID="1008" v:groupContext="shape" transform="translate(35.6255,-22.0097)">
						<title>Sheet.1008</title>
						<path d="M1.78 242.31 L0 244.1 L12.77 244.1 L10.55 246.22 L20.87 243.32 L15.43 241.19 L14.32 242.31 L1.78
									 242.31 L1.78 242.31 L1.78 242.31 Z" class="st7"/>
					</g>
					<g id="shape1009-27" v:mID="1009" v:groupContext="shape" transform="translate(7.65007,-14.08)">
						<title>Sheet.1009</title>
						<path d="M19.09 245.1 L20.87 243.32 L8.21 243.32 L10.32 241.19 L0 244.1 L5.44 246.22 L6.66 245.1 L19.09 245.1
									 L19.09 245.1 L19.09 245.1 Z" class="st7"/>
					</g>
					<g id="shape1010-29" v:mID="1010" v:groupContext="shape" transform="translate(13.7558,-20.2227)">
						<title>Sheet.1010</title>
						<path d="M19.09 245.1 L20.87 243.32 L8.21 243.32 L10.32 241.19 L0 244.1 L5.44 246.22 L6.66 245.1 L19.09 245.1
									 L19.09 245.1 L19.09 245.1 Z" class="st7"/>
					</g>
					<g id="shape1011-31" v:mID="1011" v:groupContext="shape">
						<title>Sheet.1011</title>
						<path d="M22.97 242.19 L22.97 242.19 L22.97 242.19 Z" class="st8"/>
					</g>
					<g id="shape1012-33" v:mID="1012" v:groupContext="shape">
						<title>Sheet.1012</title>
					</g>
					<g id="shape1013-34" v:mID="1013" v:groupContext="shape">
						<title>Sheet.1013</title>
						<path d="M22.97 241.86 L22.97 241.86 L22.97 241.86 Z" class="st9"/>
					</g>
					<g id="shape1014-36" v:mID="1014" v:groupContext="shape">
						<title>Sheet.1014</title>
					</g>
					<g id="shape1015-37" v:mID="1015" v:groupContext="shape">
						<title>Sheet.1015</title>
						<path d="M23.64 238.84 L23.64 238.84 L23.64 238.84 Z" class="st9"/>
					</g>
					<g id="shape1016-39" v:mID="1016" v:groupContext="shape">
						<title>Sheet.1016</title>
					</g>
				</g>
				<g id="shape1104-40" v:mID="1104" v:groupContext="shape" transform="translate(0.215671,0)">
					<title>Sheet.1104</title>
					<desc>SW1</desc>
					<v:textBlock v:margins="rect(4,4,4,4)" v:tabSpace="42.5197"/>
					<v:textRect cx="24.7111" cy="239.662" width="49.43" height="13.1152"/>
					<rect x="0" y="233.105" width="49.4221" height="13.1152" class="st1"/>
					<text x="14.96" y="242.36" class="st10" v:langID="1033"><v:paragraph v:horizAlign="1"/><v:tabList/>SW1</text>				</g>
			</g>
			<g id="group1110-43" transform="translate(322.489,-114.005)" v:mID="1110" v:groupContext="group">
				<title>Sheet.1110</title>
				<g id="group1034-44" v:mID="1034" v:groupContext="group">
					<title>SW-SVG.1034</title>
					<g id="shape1035-45" v:mID="1035" v:groupContext="shape" transform="translate(0.545204,-0.56584)">
						<title>Sheet.1035</title>
						<path d="M0 233.93 L0 246.22 L48.96 246.22 L48.96 233.93 L0 233.93 L0 233.93 L0 233.93 Z" class="st4"/>
					</g>
					<g id="shape1036-47" v:mID="1036" v:groupContext="shape" transform="translate(0.545204,-0.56584)">
						<title>Sheet.1036</title>
						<path d="M0 233.93 L0 246.22 L48.96 246.22 L48.96 233.93 L0 233.93 L0 233.93 L0 233.93" class="st5"/>
					</g>
					<g id="shape1037-50" v:mID="1037" v:groupContext="shape" transform="translate(49.5022,-0.56584)">
						<title>Sheet.1037</title>
						<path d="M0 233.93 L14.88 218.97 L14.88 231.25 L0 246.22 L0 233.93 L0 233.93 L0 233.93 Z" class="st4"/>
					</g>
					<g id="shape1038-52" v:mID="1038" v:groupContext="shape" transform="translate(49.5022,-0.56584)">
						<title>Sheet.1038</title>
						<path d="M0 233.93 L14.88 218.97 L14.88 231.25 L0 246.22 L0 233.93 L0 233.93 L0 233.93" class="st5"/>
					</g>
					<g id="shape1039-55" v:mID="1039" v:groupContext="shape" transform="translate(0.545204,-12.8514)">
						<title>Sheet.1039</title>
						<path d="M48.96 246.22 L63.83 231.25 L14.88 231.25 L0 246.22 L48.96 246.22 L48.96 246.22 L48.96 246.22 Z"
								class="st6"/>
					</g>
					<g id="shape1040-57" v:mID="1040" v:groupContext="shape" transform="translate(0.545204,-12.8514)">
						<title>Sheet.1040</title>
						<path d="M48.96 246.22 L63.83 231.25 L14.88 231.25 L0 246.22 L48.96 246.22 L48.96 246.22 L48.96 246.22"
								class="st5"/>
					</g>
					<g id="shape1041-60" v:mID="1041" v:groupContext="shape" transform="translate(29.5197,-15.8669)">
						<title>Sheet.1041</title>
						<path d="M1.78 242.31 L0 244.1 L12.77 244.1 L10.55 246.22 L20.87 243.32 L15.43 241.19 L14.32 242.31 L1.78
									 242.31 L1.78 242.31 L1.78 242.31 Z" class="st7"/>
					</g>
					<g id="shape1042-62" v:mID="1042" v:groupContext="shape" transform="translate(35.6255,-22.0097)">
						<title>Sheet.1042</title>
						<path d="M1.78 242.31 L0 244.1 L12.77 244.1 L10.55 246.22 L20.87 243.32 L15.43 241.19 L14.32 242.31 L1.78
									 242.31 L1.78 242.31 L1.78 242.31 Z" class="st7"/>
					</g>
					<g id="shape1043-64" v:mID="1043" v:groupContext="shape" transform="translate(7.65007,-14.08)">
						<title>Sheet.1043</title>
						<path d="M19.09 245.1 L20.87 243.32 L8.21 243.32 L10.32 241.19 L0 244.1 L5.44 246.22 L6.66 245.1 L19.09 245.1
									 L19.09 245.1 L19.09 245.1 Z" class="st7"/>
					</g>
					<g id="shape1044-66" v:mID="1044" v:groupContext="shape" transform="translate(13.7558,-20.2227)">
						<title>Sheet.1044</title>
						<path d="M19.09 245.1 L20.87 243.32 L8.21 243.32 L10.32 241.19 L0 244.1 L5.44 246.22 L6.66 245.1 L19.09 245.1
									 L19.09 245.1 L19.09 245.1 Z" class="st7"/>
					</g>
					<g id="shape1045-68" v:mID="1045" v:groupContext="shape">
						<title>Sheet.1045</title>
						<path d="M22.97 242.19 L22.97 242.19 L22.97 242.19 Z" class="st8"/>
					</g>
					<g id="shape1046-70" v:mID="1046" v:groupContext="shape">
						<title>Sheet.1046</title>
					</g>
					<g id="shape1047-71" v:mID="1047" v:groupContext="shape">
						<title>Sheet.1047</title>
						<path d="M22.97 241.86 L22.97 241.86 L22.97 241.86 Z" class="st9"/>
					</g>
					<g id="shape1048-73" v:mID="1048" v:groupContext="shape">
						<title>Sheet.1048</title>
					</g>
					<g id="shape1049-74" v:mID="1049" v:groupContext="shape">
						<title>Sheet.1049</title>
						<path d="M23.64 238.84 L23.64 238.84 L23.64 238.84 Z" class="st9"/>
					</g>
					<g id="shape1050-76" v:mID="1050" v:groupContext="shape">
						<title>Sheet.1050</title>
					</g>
				</g>
				<g id="shape1105-77" v:mID="1105" v:groupContext="shape">
					<title>Sheet.1105</title>
					<desc>SW3</desc>
					<v:textBlock v:margins="rect(4,4,4,4)" v:tabSpace="42.5197"/>
					<v:textRect cx="24.7111" cy="239.662" width="49.43" height="13.1152"/>
					<rect x="0" y="233.105" width="49.4221" height="13.1152" class="st1"/>
					<text x="14.96" y="242.36" class="st10" v:langID="1033"><v:paragraph v:horizAlign="1"/><v:tabList/>SW3</text>				</g>
			</g>
			<g id="group1111-80" transform="translate(121.186,-114.005)" v:mID="1111" v:groupContext="group">
				<title>Sheet.1111</title>
				<g id="group1017-81" v:mID="1017" v:groupContext="group">
					<title>SW-SVG.1017</title>
					<g id="shape1018-82" v:mID="1018" v:groupContext="shape" transform="translate(0.545204,-0.56584)">
						<title>Sheet.1018</title>
						<path d="M0 233.93 L0 246.22 L48.96 246.22 L48.96 233.93 L0 233.93 L0 233.93 L0 233.93 Z" class="st4"/>
					</g>
					<g id="shape1019-84" v:mID="1019" v:groupContext="shape" transform="translate(0.545204,-0.56584)">
						<title>Sheet.1019</title>
						<path d="M0 233.93 L0 246.22 L48.96 246.22 L48.96 233.93 L0 233.93 L0 233.93 L0 233.93" class="st5"/>
					</g>
					<g id="shape1020-87" v:mID="1020" v:groupContext="shape" transform="translate(49.5022,-0.56584)">
						<title>Sheet.1020</title>
						<path d="M0 233.93 L14.88 218.97 L14.88 231.25 L0 246.22 L0 233.93 L0 233.93 L0 233.93 Z" class="st4"/>
					</g>
					<g id="shape1021-89" v:mID="1021" v:groupContext="shape" transform="translate(49.5022,-0.56584)">
						<title>Sheet.1021</title>
						<path d="M0 233.93 L14.88 218.97 L14.88 231.25 L0 246.22 L0 233.93 L0 233.93 L0 233.93" class="st5"/>
					</g>
					<g id="shape1022-92" v:mID="1022" v:groupContext="shape" transform="translate(0.545204,-12.8514)">
						<title>Sheet.1022</title>
						<path d="M48.96 246.22 L63.83 231.25 L14.88 231.25 L0 246.22 L48.96 246.22 L48.96 246.22 L48.96 246.22 Z"
								class="st6"/>
					</g>
					<g id="shape1023-94" v:mID="1023" v:groupContext="shape" transform="translate(0.545204,-12.8514)">
						<title>Sheet.1023</title>
						<path d="M48.96 246.22 L63.83 231.25 L14.88 231.25 L0 246.22 L48.96 246.22 L48.96 246.22 L48.96 246.22"
								class="st5"/>
					</g>
					<g id="shape1024-97" v:mID="1024" v:groupContext="shape" transform="translate(29.5197,-15.8669)">
						<title>Sheet.1024</title>
						<path d="M1.78 242.31 L0 244.1 L12.77 244.1 L10.55 246.22 L20.87 243.32 L15.43 241.19 L14.32 242.31 L1.78
									 242.31 L1.78 242.31 L1.78 242.31 Z" class="st7"/>
					</g>
					<g id="shape1025-99" v:mID="1025" v:groupContext="shape" transform="translate(35.6255,-22.0097)">
						<title>Sheet.1025</title>
						<path d="M1.78 242.31 L0 244.1 L12.77 244.1 L10.55 246.22 L20.87 243.32 L15.43 241.19 L14.32 242.31 L1.78
									 242.31 L1.78 242.31 L1.78 242.31 Z" class="st7"/>
					</g>
					<g id="shape1026-101" v:mID="1026" v:groupContext="shape" transform="translate(7.65007,-14.08)">
						<title>Sheet.1026</title>
						<path d="M19.09 245.1 L20.87 243.32 L8.21 243.32 L10.32 241.19 L0 244.1 L5.44 246.22 L6.66 245.1 L19.09 245.1
									 L19.09 245.1 L19.09 245.1 Z" class="st7"/>
					</g>
					<g id="shape1027-103" v:mID="1027" v:groupContext="shape" transform="translate(13.7558,-20.2227)">
						<title>Sheet.1027</title>
						<path d="M19.09 245.1 L20.87 243.32 L8.21 243.32 L10.32 241.19 L0 244.1 L5.44 246.22 L6.66 245.1 L19.09 245.1
									 L19.09 245.1 L19.09 245.1 Z" class="st7"/>
					</g>
					<g id="shape1028-105" v:mID="1028" v:groupContext="shape">
						<title>Sheet.1028</title>
						<path d="M22.97 242.19 L22.97 242.19 L22.97 242.19 Z" class="st8"/>
					</g>
					<g id="shape1029-107" v:mID="1029" v:groupContext="shape">
						<title>Sheet.1029</title>
					</g>
					<g id="shape1030-108" v:mID="1030" v:groupContext="shape">
						<title>Sheet.1030</title>
						<path d="M22.97 241.86 L22.97 241.86 L22.97 241.86 Z" class="st9"/>
					</g>
					<g id="shape1031-110" v:mID="1031" v:groupContext="shape">
						<title>Sheet.1031</title>
					</g>
					<g id="shape1032-111" v:mID="1032" v:groupContext="shape">
						<title>Sheet.1032</title>
						<path d="M23.64 238.84 L23.64 238.84 L23.64 238.84 Z" class="st9"/>
					</g>
					<g id="shape1033-113" v:mID="1033" v:groupContext="shape">
						<title>Sheet.1033</title>
					</g>
				</g>
				<g id="shape1106-114" v:mID="1106" v:groupContext="shape">
					<title>Sheet.1106</title>
					<desc>SW2</desc>
					<v:textBlock v:margins="rect(4,4,4,4)" v:tabSpace="42.5197"/>
					<v:textRect cx="24.7111" cy="239.662" width="49.43" height="13.1152"/>
					<rect x="0" y="233.105" width="49.4221" height="13.1152" class="st1"/>
					<text x="14.96" y="242.36" class="st10" v:langID="1033"><v:paragraph v:horizAlign="1"/><v:tabList/>SW2</text>				</g>
			</g>
			<g id="group1113-117" transform="translate(121.186,-9.12294)" v:mID="1113" v:groupContext="group">
				<title>Sheet.1113</title>
				<g id="group1114-118" v:mID="1114" v:groupContext="group">
					<title>SW-SVG.1051</title>
					<g id="shape1115-119" v:mID="1115" v:groupContext="shape" transform="translate(0.545204,-0.56584)">
						<title>Sheet.1115</title>
						<path d="M0 233.93 L0 246.22 L48.96 246.22 L48.96 233.93 L0 233.93 L0 233.93 L0 233.93 Z" class="st11"/>
					</g>
					<g id="shape1116-121" v:mID="1116" v:groupContext="shape" transform="translate(0.545204,-0.56584)">
						<title>Sheet.1116</title>
						<path d="M0 233.93 L0 246.22 L48.96 246.22 L48.96 233.93 L0 233.93 L0 233.93 L0 233.93" class="st5"/>
					</g>
					<g id="shape1117-124" v:mID="1117" v:groupContext="shape" transform="translate(49.5022,-0.56584)">
						<title>Sheet.1117</title>
						<path d="M0 233.93 L14.88 218.97 L14.88 231.25 L0 246.22 L0 233.93 L0 233.93 L0 233.93 Z" class="st11"/>
					</g>
					<g id="shape1118-126" v:mID="1118" v:groupContext="shape" transform="translate(49.5022,-0.56584)">
						<title>Sheet.1118</title>
						<path d="M0 233.93 L14.88 218.97 L14.88 231.25 L0 246.22 L0 233.93 L0 233.93 L0 233.93" class="st5"/>
					</g>
					<g id="shape1119-129" v:mID="1119" v:groupContext="shape" transform="translate(0.545204,-12.8514)">
						<title>Sheet.1119</title>
						<path d="M48.96 246.22 L63.83 231.25 L14.88 231.25 L0 246.22 L48.96 246.22 L48.96 246.22 L48.96 246.22 Z"
								class="st12"/>
					</g>
					<g id="shape1120-131" v:mID="1120" v:groupContext="shape" transform="translate(0.545204,-12.8514)">
						<title>Sheet.1120</title>
						<path d="M48.96 246.22 L63.83 231.25 L14.88 231.25 L0 246.22 L48.96 246.22 L48.96 246.22 L48.96 246.22"
								class="st5"/>
					</g>
					<g id="shape1121-134" v:mID="1121" v:groupContext="shape" transform="translate(29.5197,-15.8669)">
						<title>Sheet.1121</title>
						<path d="M1.78 242.31 L0 244.1 L12.77 244.1 L10.55 246.22 L20.87 243.32 L15.43 241.19 L14.32 242.31 L1.78
									 242.31 L1.78 242.31 L1.78 242.31 Z" class="st7"/>
					</g>
					<g id="shape1122-136" v:mID="1122" v:groupContext="shape" transform="translate(35.6255,-22.0097)">
						<title>Sheet.1122</title>
						<path d="M1.78 242.31 L0 244.1 L12.77 244.1 L10.55 246.22 L20.87 243.32 L15.43 241.19 L14.32 242.31 L1.78
									 242.31 L1.78 242.31 L1.78 242.31 Z" class="st7"/>
					</g>
					<g id="shape1123-138" v:mID="1123" v:groupContext="shape" transform="translate(7.65007,-14.08)">
						<title>Sheet.1123</title>
						<path d="M19.09 245.1 L20.87 243.32 L8.21 243.32 L10.32 241.19 L0 244.1 L5.44 246.22 L6.66 245.1 L19.09 245.1
									 L19.09 245.1 L19.09 245.1 Z" class="st7"/>
					</g>
					<g id="shape1124-140" v:mID="1124" v:groupContext="shape" transform="translate(13.7558,-20.2227)">
						<title>Sheet.1124</title>
						<path d="M19.09 245.1 L20.87 243.32 L8.21 243.32 L10.32 241.19 L0 244.1 L5.44 246.22 L6.66 245.1 L19.09 245.1
									 L19.09 245.1 L19.09 245.1 Z" class="st7"/>
					</g>
					<g id="shape1125-142" v:mID="1125" v:groupContext="shape">
						<title>Sheet.1125</title>
						<path d="M22.97 242.19 L22.97 242.19 L22.97 242.19 Z" class="st8"/>
					</g>
					<g id="shape1126-144" v:mID="1126" v:groupContext="shape">
						<title>Sheet.1126</title>
					</g>
					<g id="shape1127-145" v:mID="1127" v:groupContext="shape">
						<title>Sheet.1127</title>
						<path d="M22.97 241.86 L22.97 241.86 L22.97 241.86 Z" class="st9"/>
					</g>
					<g id="shape1128-147" v:mID="1128" v:groupContext="shape">
						<title>Sheet.1128</title>
					</g>
					<g id="shape1129-148" v:mID="1129" v:groupContext="shape">
						<title>Sheet.1129</title>
						<path d="M23.64 238.84 L23.64 238.84 L23.64 238.84 Z" class="st9"/>
					</g>
					<g id="shape1130-150" v:mID="1130" v:groupContext="shape">
						<title>Sheet.1130</title>
					</g>
				</g>
				<g id="shape1131-151" v:mID="1131" v:groupContext="shape">
					<title>Sheet.1131</title>
					<desc>SW4</desc>
					<v:textBlock v:margins="rect(4,4,4,4)" v:tabSpace="42.5197"/>
					<v:textRect cx="24.7111" cy="239.662" width="49.43" height="13.1152"/>
					<rect x="0" y="233.105" width="49.4221" height="13.1152" class="st1"/>
					<text x="14.96" y="242.36" class="st10" v:langID="1033"><v:paragraph v:horizAlign="1"/><v:tabList/>SW4</text>				</g>
			</g>
			<g id="shape1152-154" v:mID="1152" v:groupContext="shape" transform="translate(392.246,-9.12294)">
				<title>Sheet.1152</title>
				<desc>Bridge ID 32769:1234.5678.9ABC</desc>
				<v:textBlock v:margins="rect(4,0,4,0)" v:tabSpace="42.5197"/>
				<v:textRect cx="53.6488" cy="232.311" width="107.3" height="27.8174"/>
				<rect x="0" y="218.402" width="107.298" height="27.8174" class="st1"/>
				<text x="0" y="229.31" class="st13" v:langID="1033"><v:paragraph/><v:tabList/>Bridge ID<v:newlineChar/><tspan x="0"
							dy="1.2em" class="st3">32769:1234.5678.9ABC</tspan></text>			</g>
			<g id="shape1153-158" v:mID="1153" v:groupContext="shape" transform="translate(3.96253,-114.005)">
				<title>Sheet.1153</title>
				<desc>Bridge ID 28673:0050.56AB.CDEF</desc>
				<v:textBlock v:margins="rect(4,0,4,0)" v:tabSpace="42.5197"/>
				<v:textRect cx="56.2283" cy="232.311" width="112.46" height="27.8174"/>
				<rect x="0" y="218.402" width="112.457" height="27.8174" class="st1"/>
				<text x="68.01" y="229.31" class="st13" v:langID="1033"><v:paragraph v:horizAlign="2"/><v:tabList/>Bridge ID<v:newlineChar/><tspan
							x="2.38" dy="1.2em" class="st3">28673:0050.56AB.CDEF</tspan></text>			</g>
			<g id="shape1154-162" v:mID="1154" v:groupContext="shape" transform="translate(392.246,-114.005)">
				<title>Sheet.1154</title>
				<desc>Bridge ID 32769:A1B2.C3D4.E5F6</desc>
				<v:textBlock v:margins="rect(4,0,4,0)" v:tabSpace="42.5197"/>
				<v:textRect cx="57.8813" cy="232.311" width="115.77" height="27.8174"/>
				<rect x="0" y="218.402" width="115.763" height="27.8174" class="st1"/>
				<text x="-0" y="229.31" class="st13" v:langID="1033"><v:paragraph/><v:tabList/>Bridge ID<v:newlineChar/><tspan
							x="-0" dy="1.2em" class="st3">32769:A1B2.C3D4.E5F6</tspan></text>			</g>
			<g id="shape1156-166" v:mID="1156" v:groupContext="shape" transform="translate(202.073,-222.353)">
				<title>Sheet.1156</title>
				<desc>Bridge ID 32769:9A8B.7C6D.5E4F</desc>
				<v:textBlock v:margins="rect(4,4,4,4)" v:tabSpace="42.5197"/>
				<v:textRect cx="60.3356" cy="234.753" width="120.68" height="22.9336"/>
				<rect x="0" y="223.286" width="120.671" height="22.9336" class="st1"/>
				<text x="38.11" y="231.75" class="st13" v:langID="1033"><v:paragraph v:horizAlign="1"/><v:tabList/>Bridge ID<v:newlineChar/><tspan
							x="5.3" dy="1.2em" class="st3">32769:9A8B.7C6D.5E4F</tspan></text>			</g>
			<g id="group1157-170" transform="translate(322.489,-9.12294)" v:mID="1157" v:groupContext="group">
				<title>Sheet.1157</title>
				<g id="group1051-171" v:mID="1051" v:groupContext="group">
					<title>SW-SVG.1051</title>
					<g id="shape1052-172" v:mID="1052" v:groupContext="shape" transform="translate(0.545204,-0.56584)">
						<title>Sheet.1052</title>
						<path d="M0 233.93 L0 246.22 L48.96 246.22 L48.96 233.93 L0 233.93 L0 233.93 L0 233.93 Z" class="st4"/>
					</g>
					<g id="shape1053-174" v:mID="1053" v:groupContext="shape" transform="translate(0.545204,-0.56584)">
						<title>Sheet.1053</title>
						<path d="M0 233.93 L0 246.22 L48.96 246.22 L48.96 233.93 L0 233.93 L0 233.93 L0 233.93" class="st5"/>
					</g>
					<g id="shape1054-177" v:mID="1054" v:groupContext="shape" transform="translate(49.5022,-0.56584)">
						<title>Sheet.1054</title>
						<path d="M0 233.93 L14.88 218.97 L14.88 231.25 L0 246.22 L0 233.93 L0 233.93 L0 233.93 Z" class="st4"/>
					</g>
					<g id="shape1055-179" v:mID="1055" v:groupContext="shape" transform="translate(49.5022,-0.56584)">
						<title>Sheet.1055</title>
						<path d="M0 233.93 L14.88 218.97 L14.88 231.25 L0 246.22 L0 233.93 L0 233.93 L0 233.93" class="st5"/>
					</g>
					<g id="shape1056-182" v:mID="1056" v:groupContext="shape" transform="translate(0.545204,-12.8514)">
						<title>Sheet.1056</title>
						<path d="M48.96 246.22 L63.83 231.25 L14.88 231.25 L0 246.22 L48.96 246.22 L48.96 246.22 L48.96 246.22 Z"
								class="st6"/>
					</g>
					<g id="shape1057-184" v:mID="1057" v:groupContext="shape" transform="translate(0.545204,-12.8514)">
						<title>Sheet.1057</title>
						<path d="M48.96 246.22 L63.83 231.25 L14.88 231.25 L0 246.22 L48.96 246.22 L48.96 246.22 L48.96 246.22"
								class="st5"/>
					</g>
					<g id="shape1058-187" v:mID="1058" v:groupContext="shape" transform="translate(29.5197,-15.8669)">
						<title>Sheet.1058</title>
						<path d="M1.78 242.31 L0 244.1 L12.77 244.1 L10.55 246.22 L20.87 243.32 L15.43 241.19 L14.32 242.31 L1.78
									 242.31 L1.78 242.31 L1.78 242.31 Z" class="st7"/>
					</g>
					<g id="shape1059-189" v:mID="1059" v:groupContext="shape" transform="translate(35.6255,-22.0097)">
						<title>Sheet.1059</title>
						<path d="M1.78 242.31 L0 244.1 L12.77 244.1 L10.55 246.22 L20.87 243.32 L15.43 241.19 L14.32 242.31 L1.78
									 242.31 L1.78 242.31 L1.78 242.31 Z" class="st7"/>
					</g>
					<g id="shape1060-191" v:mID="1060" v:groupContext="shape" transform="translate(7.65007,-14.08)">
						<title>Sheet.1060</title>
						<path d="M19.09 245.1 L20.87 243.32 L8.21 243.32 L10.32 241.19 L0 244.1 L5.44 246.22 L6.66 245.1 L19.09 245.1
									 L19.09 245.1 L19.09 245.1 Z" class="st7"/>
					</g>
					<g id="shape1061-193" v:mID="1061" v:groupContext="shape" transform="translate(13.7558,-20.2227)">
						<title>Sheet.1061</title>
						<path d="M19.09 245.1 L20.87 243.32 L8.21 243.32 L10.32 241.19 L0 244.1 L5.44 246.22 L6.66 245.1 L19.09 245.1
									 L19.09 245.1 L19.09 245.1 Z" class="st7"/>
					</g>
					<g id="shape1062-195" v:mID="1062" v:groupContext="shape">
						<title>Sheet.1062</title>
						<path d="M22.97 242.19 L22.97 242.19 L22.97 242.19 Z" class="st8"/>
					</g>
					<g id="shape1063-197" v:mID="1063" v:groupContext="shape">
						<title>Sheet.1063</title>
					</g>
					<g id="shape1064-198" v:mID="1064" v:groupContext="shape">
						<title>Sheet.1064</title>
						<path d="M22.97 241.86 L22.97 241.86 L22.97 241.86 Z" class="st9"/>
					</g>
					<g id="shape1065-200" v:mID="1065" v:groupContext="shape">
						<title>Sheet.1065</title>
					</g>
					<g id="shape1066-201" v:mID="1066" v:groupContext="shape">
						<title>Sheet.1066</title>
						<path d="M23.64 238.84 L23.64 238.84 L23.64 238.84 Z" class="st9"/>
					</g>
					<g id="shape1067-203" v:mID="1067" v:groupContext="shape">
						<title>Sheet.1067</title>
					</g>
				</g>
				<g id="shape1107-204" v:mID="1107" v:groupContext="shape">
					<title>Sheet.1107</title>
					<desc>SW5</desc>
					<v:textBlock v:margins="rect(4,4,4,4)" v:tabSpace="42.5197"/>
					<v:textRect cx="24.7111" cy="239.662" width="49.43" height="13.1152"/>
					<rect x="0" y="233.105" width="49.4221" height="13.1152" class="st1"/>
					<text x="14.96" y="242.36" class="st10" v:langID="1033"><v:paragraph v:horizAlign="1"/><v:tabList/>SW5</text>				</g>
			</g>
			<g id="shape1158-207" v:mID="1158" v:groupContext="shape" transform="translate(183.28,-120.562)">
				<title>Sheet.1158</title>
				<path d="M0 246.22 L134.74 246.22" class="st14"/>
			</g>
			<g id="shape1159-210" v:mID="1159" v:groupContext="shape" transform="translate(183.965,-16.3301)">
				<title>Sheet.1159</title>
				<path d="M0 246.22 L134.74 246.22" class="st14"/>
			</g>
			<g id="shape1160-213" v:mID="1160" v:groupContext="shape" transform="translate(397.185,136.146) rotate(90)">
				<title>Sheet.1160</title>
				<path d="M0 246.22 L67.46 246.22" class="st14"/>
			</g>
			<g id="shape1161-216" v:mID="1161" v:groupContext="shape" transform="translate(597.311,135.579) rotate(90)">
				<title>Sheet.1161</title>
				<path d="M0 246.22 L69.8 246.22" class="st15"/>
			</g>
			<g id="shape1162-219" v:mID="1162" v:groupContext="shape" transform="translate(293.605,-80.1651) rotate(29.0824)">
				<title>Sheet.1162</title>
				<path d="M0 246.22 L170.29 246.22" class="st15"/>
			</g>
			<g id="shape1163-222" v:mID="1163" v:groupContext="shape" transform="translate(61.4864,4.34402) rotate(-30.9457)">
				<title>Sheet.1163</title>
				<path d="M0 246.22 L154.35 246.22" class="st15"/>
			</g>
			<g id="shape1164-225" v:mID="1164" v:groupContext="shape" transform="translate(46.8255,-118.65) rotate(-27.2996)">
				<title>Sheet.1164</title>
				<path d="M0 246.22 L98.89 246.22" class="st14"/>
			</g>
			<g id="shape1165-228" v:mID="1165" v:groupContext="shape" transform="translate(217.343,315.381) rotate(-150.945)">
				<title>Sheet.1165</title>
				<path d="M0 246.22 L93.39 246.22" class="st15"/>
			</g>
			<g id="shape1166-231" v:mID="1166" v:groupContext="shape" transform="translate(127.571,-143.794)">
				<title>Sheet.1166</title>
				<desc>Fa0/0</desc>
				<v:textBlock v:margins="rect(4,4,4,4)" v:tabSpace="42.5197"/>
				<v:textRect cx="15.5906" cy="241.22" width="31.19" height="10"/>
				<rect x="0" y="236.22" width="31.1811" height="10" class="st1"/>
				<text x="4.17" y="243.92" class="st16" v:langID="1033"><v:paragraph v:horizAlign="2"/><v:tabList/>Fa0/0</text>			</g>
			<g id="shape1167-234" v:mID="1167" v:groupContext="shape" transform="translate(186.682,-126.153)">
				<title>Sheet.1167</title>
				<desc>Gi0/0/1</desc>
				<v:textBlock v:margins="rect(4,4,4,4)" v:tabSpace="42.5197"/>
				<v:textRect cx="18.9488" cy="241.22" width="37.9" height="10"/>
				<rect x="0" y="236.22" width="37.8977" height="10" class="st1"/>
				<text x="4" y="243.92" class="st16" v:langID="1033"><v:paragraph/><v:tabList/>Gi0/0/1</text>			</g>
			<g id="shape1168-237" v:mID="1168" v:groupContext="shape" transform="translate(198.931,-179.342)">
				<title>Sheet.1168</title>
				<desc>Fa0/0</desc>
				<v:textBlock v:margins="rect(4,4,4,4)" v:tabSpace="42.5197"/>
				<v:textRect cx="15.5906" cy="241.22" width="31.19" height="10"/>
				<rect x="0" y="236.22" width="31.1811" height="10" class="st1"/>
				<text x="4" y="243.92" class="st16" v:langID="1033"><v:paragraph/><v:tabList/>Fa0/0</text>			</g>
			<g id="shape1169-240" v:mID="1169" v:groupContext="shape" transform="translate(287.314,-125.836)">
				<title>Sheet.1169</title>
				<desc>Gi0/0/1</desc>
				<v:textBlock v:margins="rect(4,4,4,4)" v:tabSpace="42.5197"/>
				<v:textRect cx="18.9488" cy="241.22" width="37.9" height="10"/>
				<rect x="0" y="236.22" width="37.8977" height="10" class="st1"/>
				<text x="4" y="243.92" class="st16" v:langID="1033"><v:paragraph/><v:tabList/>Gi0/0/1</text>			</g>
			<g id="shape1170-243" v:mID="1170" v:groupContext="shape" transform="translate(106.264,-97.469)">
				<title>Sheet.1170</title>
				<desc>Gi0/0/2</desc>
				<v:textBlock v:margins="rect(4,4,4,4)" v:tabSpace="42.5197"/>
				<v:textRect cx="18.9488" cy="241.22" width="37.9" height="10"/>
				<rect x="0" y="236.22" width="37.8977" height="10" class="st1"/>
				<text x="4" y="243.92" class="st16" v:langID="1033"><v:paragraph/><v:tabList/>Gi0/0/2</text>			</g>
			<g id="shape1171-246" v:mID="1171" v:groupContext="shape" transform="translate(105.371,-39.6963)">
				<title>Sheet.1171</title>
				<desc>Gi0/0/1</desc>
				<v:textBlock v:margins="rect(4,4,4,4)" v:tabSpace="42.5197"/>
				<v:textRect cx="18.9488" cy="241.22" width="37.9" height="10"/>
				<rect x="0" y="236.22" width="37.8977" height="10" class="st1"/>
				<text x="4" y="243.92" class="st16" v:langID="1033"><v:paragraph/><v:tabList/>Gi0/0/1</text>			</g>
			<g id="shape1172-249" v:mID="1172" v:groupContext="shape" transform="translate(182.335,0)">
				<title>Sheet.1172</title>
				<desc>Fa0/2</desc>
				<v:textBlock v:margins="rect(4,4,4,4)" v:tabSpace="42.5197"/>
				<v:textRect cx="15.5906" cy="241.22" width="31.19" height="10"/>
				<rect x="0" y="236.22" width="31.1811" height="10" class="st1"/>
				<text x="4" y="243.92" class="st16" v:langID="1033"><v:paragraph/><v:tabList/>Fa0/2</text>			</g>
			<g id="shape1173-252" v:mID="1173" v:groupContext="shape" transform="translate(289.439,0)">
				<title>Sheet.1173</title>
				<desc>Fa0/2</desc>
				<v:textBlock v:margins="rect(4,4,4,4)" v:tabSpace="42.5197"/>
				<v:textRect cx="15.5906" cy="241.22" width="31.19" height="10"/>
				<rect x="0" y="236.22" width="31.1811" height="10" class="st1"/>
				<text x="4" y="243.92" class="st16" v:langID="1033"><v:paragraph/><v:tabList/>Fa0/2</text>			</g>
			<g id="shape1174-255" v:mID="1174" v:groupContext="shape" transform="translate(296.816,-87.964)">
				<title>Sheet.1174</title>
				<desc>Fa0/1</desc>
				<v:textBlock v:margins="rect(4,4,4,4)" v:tabSpace="42.5197"/>
				<v:textRect cx="15.5906" cy="241.22" width="31.19" height="10"/>
				<rect x="0" y="236.22" width="31.1811" height="10" class="st1"/>
				<text x="4" y="243.92" class="st16" v:langID="1033"><v:paragraph/><v:tabList/>Fa0/1</text>			</g>
			<g id="shape1175-258" v:mID="1175" v:groupContext="shape" transform="translate(181.952,-41.6192)">
				<title>Sheet.1175</title>
				<desc>Fa0/1</desc>
				<v:textBlock v:margins="rect(4,4,4,4)" v:tabSpace="42.5197"/>
				<v:textRect cx="15.5906" cy="241.22" width="31.19" height="10"/>
				<rect x="0" y="236.22" width="31.1811" height="10" class="st1"/>
				<text x="4" y="243.92" class="st16" v:langID="1033"><v:paragraph/><v:tabList/>Fa0/1</text>			</g>
			<g id="shape1176-261" v:mID="1176" v:groupContext="shape" transform="translate(361.012,-99.532)">
				<title>Sheet.1176</title>
				<desc>Fa0/2</desc>
				<v:textBlock v:margins="rect(4,4,4,4)" v:tabSpace="42.5197"/>
				<v:textRect cx="15.5906" cy="241.22" width="31.19" height="10"/>
				<rect x="0" y="236.22" width="31.1811" height="10" class="st1"/>
				<text x="4" y="243.92" class="st16" v:langID="1033"><v:paragraph/><v:tabList/>Fa0/2</text>			</g>
			<g id="shape1177-264" v:mID="1177" v:groupContext="shape" transform="translate(361.012,-42.1844)">
				<title>Sheet.1177</title>
				<desc>Fa0/0</desc>
				<v:textBlock v:margins="rect(4,4,4,4)" v:tabSpace="42.5197"/>
				<v:textRect cx="15.5906" cy="241.22" width="31.19" height="10"/>
				<rect x="0" y="236.22" width="31.1811" height="10" class="st1"/>
				<text x="4" y="243.92" class="st16" v:langID="1033"><v:paragraph/><v:tabList/>Fa0/0</text>			</g>
			<g id="shape1178-267" v:mID="1178" v:groupContext="shape" transform="translate(340.353,-144.209)">
				<title>Sheet.1178</title>
				<desc>Fa0/0</desc>
				<v:textBlock v:margins="rect(4,4,4,4)" v:tabSpace="42.5197"/>
				<v:textRect cx="15.5906" cy="241.22" width="31.19" height="10"/>
				<rect x="0" y="236.22" width="31.1811" height="10" class="st1"/>
				<text x="4" y="243.92" class="st16" v:langID="1033"><v:paragraph/><v:tabList/>Fa0/0</text>			</g>
			<g id="shape1179-270" v:mID="1179" v:groupContext="shape" transform="translate(277.542,-179.551)">
				<title>Sheet.1179</title>
				<desc>Fa0/1</desc>
				<v:textBlock v:margins="rect(4,4,4,4)" v:tabSpace="42.5197"/>
				<v:textRect cx="15.5906" cy="241.22" width="31.19" height="10"/>
				<rect x="0" y="236.22" width="31.1811" height="10" class="st1"/>
				<text x="4" y="243.92" class="st16" v:langID="1033"><v:paragraph/><v:tabList/>Fa0/1</text>			</g>
			<g id="shape1180-273" v:mID="1180" v:groupContext="shape" transform="translate(168.162,-89.9649)">
				<title>Sheet.1180</title>
				<desc>Fa0/1</desc>
				<v:textBlock v:margins="rect(4,4,4,4)" v:tabSpace="42.5197"/>
				<v:textRect cx="15.5906" cy="241.22" width="31.19" height="10"/>
				<rect x="0" y="236.22" width="31.1811" height="10" class="st1"/>
				<text x="4" y="243.92" class="st16" v:langID="1033"><v:paragraph/><v:tabList/>Fa0/1</text>			</g>
			<g id="shape1181-276" v:mID="1181" v:groupContext="shape" transform="translate(297.983,-40.4443)">
				<title>Sheet.1181</title>
				<desc>Fa0/1</desc>
				<v:textBlock v:margins="rect(4,4,4,4)" v:tabSpace="42.5197"/>
				<v:textRect cx="15.5906" cy="241.22" width="31.19" height="10"/>
				<rect x="0" y="236.22" width="31.1811" height="10" class="st1"/>
				<text x="4" y="243.92" class="st16" v:langID="1033"><v:paragraph/><v:tabList/>Fa0/1</text>			</g>
			<g id="shape1189-279" v:mID="1189" v:groupContext="shape" transform="translate(227.69,-179.09)">
				<title>Rectangle.1189</title>
				<desc>RP</desc>
				<v:userDefs>
					<v:ud v:nameU="visVersion" v:val="VT0(15):26"/>
				</v:userDefs>
				<v:textBlock v:margins="rect(2,2,2,2)" v:tabSpace="42.5197"/>
				<v:textRect cx="10.0156" cy="240.759" width="20.04" height="10.9211"/>
				<rect x="0" y="235.299" width="20.0311" height="10.9211" rx="2" ry="2" class="st17"/>
				<text x="3.76" y="243.46" class="st18" v:langID="1033"><v:paragraph v:horizAlign="1"/><v:tabList/>RP</text>			</g>
			<g id="shape1190-282" v:mID="1190" v:groupContext="shape" transform="translate(140.828,-97.469)">
				<title>Rectangle.1190</title>
				<desc>RP</desc>
				<v:userDefs>
					<v:ud v:nameU="visVersion" v:val="VT0(15):26"/>
				</v:userDefs>
				<v:textBlock v:margins="rect(2,2,2,2)" v:tabSpace="42.5197"/>
				<v:textRect cx="10.0156" cy="240.759" width="20.04" height="10.9211"/>
				<rect x="0" y="235.299" width="20.0311" height="10.9211" rx="2" ry="2" class="st17"/>
				<text x="3.76" y="243.46" class="st18" v:langID="1033"><v:paragraph v:horizAlign="1"/><v:tabList/>RP</text>			</g>
			<g id="shape1191-285" v:mID="1191" v:groupContext="shape" transform="translate(296.247,-115.104)">
				<title>Rectangle.1191</title>
				<desc>RP</desc>
				<v:userDefs>
					<v:ud v:nameU="visVersion" v:val="VT0(15):26"/>
				</v:userDefs>
				<v:textBlock v:margins="rect(2,2,2,2)" v:tabSpace="42.5197"/>
				<v:textRect cx="10.0156" cy="240.759" width="20.04" height="10.9211"/>
				<rect x="0" y="235.299" width="20.0311" height="10.9211" rx="2" ry="2" class="st17"/>
				<text x="3.76" y="243.46" class="st18" v:langID="1033"><v:paragraph v:horizAlign="1"/><v:tabList/>RP</text>			</g>
			<g id="shape1192-288" v:mID="1192" v:groupContext="shape" transform="translate(295.014,-10.7265)">
				<title>Rectangle.1192</title>
				<desc>RP</desc>
				<v:userDefs>
					<v:ud v:nameU="visVersion" v:val="VT0(15):26"/>
				</v:userDefs>
				<v:textBlock v:margins="rect(2,2,2,2)" v:tabSpace="42.5197"/>
				<v:textRect cx="10.0156" cy="240.759" width="20.04" height="10.9211"/>
				<rect x="0" y="235.299" width="20.0311" height="10.9211" rx="2" ry="2" class="st17"/>
				<text x="3.76" y="243.46" class="st18" v:langID="1033"><v:paragraph v:horizAlign="1"/><v:tabList/>RP</text>			</g>
			<g id="shape1193-291" v:mID="1193" v:groupContext="shape" transform="translate(140.828,-40.3646)">
				<title>Rectangle.1193</title>
				<desc>DP</desc>
				<v:userDefs>
					<v:ud v:nameU="visVersion" v:val="VT0(15):26"/>
				</v:userDefs>
				<v:textBlock v:margins="rect(2,2,2,2)" v:tabSpace="42.5197"/>
				<v:textRect cx="10.0156" cy="240.759" width="20.04" height="10.9211"/>
				<rect x="0" y="235.299" width="20.0311" height="10.9211" rx="2" ry="2" class="st19"/>
				<text x="3.76" y="243.46" class="st20" v:langID="2057"><v:paragraph v:horizAlign="1"/><v:tabList/>DP</text>			</g>
			<g id="shape1194-294" v:mID="1194" v:groupContext="shape" transform="translate(187.91,-10.973)">
				<title>Rectangle.1194</title>
				<desc>DP</desc>
				<v:userDefs>
					<v:ud v:nameU="visVersion" v:val="VT0(15):26"/>
				</v:userDefs>
				<v:textBlock v:margins="rect(2,2,2,2)" v:tabSpace="42.5197"/>
				<v:textRect cx="10.0156" cy="240.759" width="20.04" height="10.9211"/>
				<rect x="0" y="235.299" width="20.0311" height="10.9211" rx="2" ry="2" class="st19"/>
				<text x="3.76" y="243.46" class="st20" v:langID="2057"><v:paragraph v:horizAlign="1"/><v:tabList/>DP</text>			</g>
			<g id="shape1195-297" v:mID="1195" v:groupContext="shape" transform="translate(190.934,-31.2711)">
				<title>Rectangle.1195</title>
				<desc>DP</desc>
				<v:userDefs>
					<v:ud v:nameU="visVersion" v:val="VT0(15):26"/>
				</v:userDefs>
				<v:textBlock v:margins="rect(2,2,2,2)" v:tabSpace="42.5197"/>
				<v:textRect cx="10.0156" cy="240.759" width="20.04" height="10.9211"/>
				<rect x="0" y="235.299" width="20.0311" height="10.9211" rx="2" ry="2" class="st19"/>
				<text x="3.76" y="243.46" class="st20" v:langID="2057"><v:paragraph v:horizAlign="1"/><v:tabList/>DP</text>			</g>
			<g id="shape1196-300" v:mID="1196" v:groupContext="shape" transform="translate(158.335,-143.794)">
				<title>Rectangle.1196</title>
				<desc>DP</desc>
				<v:userDefs>
					<v:ud v:nameU="visVersion" v:val="VT0(15):26"/>
				</v:userDefs>
				<v:textBlock v:margins="rect(2,2,2,2)" v:tabSpace="42.5197"/>
				<v:textRect cx="10.0156" cy="240.759" width="20.04" height="10.9211"/>
				<rect x="0" y="235.299" width="20.0311" height="10.9211" rx="2" ry="2" class="st19"/>
				<text x="3.76" y="243.46" class="st20" v:langID="2057"><v:paragraph v:horizAlign="1"/><v:tabList/>DP</text>			</g>
			<g id="shape1197-303" v:mID="1197" v:groupContext="shape" transform="translate(258.965,-179.09)">
				<title>Rectangle.1197</title>
				<desc>X</desc>
				<v:userDefs>
					<v:ud v:nameU="visVersion" v:val="VT0(15):26"/>
				</v:userDefs>
				<v:textBlock v:margins="rect(2,2,2,2)" v:tabSpace="42.5197"/>
				<v:textRect cx="10.0156" cy="240.759" width="20.04" height="10.9211"/>
				<rect x="0" y="235.299" width="20.0311" height="10.9211" rx="2" ry="2" class="st21"/>
				<text x="7.01" y="243.46" class="st20" v:langID="1033"><v:paragraph v:horizAlign="1"/><v:tabList/>X</text>			</g>
			<g id="shape1198-306" v:mID="1198" v:groupContext="shape" transform="translate(322.489,-143.794)">
				<title>Rectangle.1198</title>
				<desc>DP</desc>
				<v:userDefs>
					<v:ud v:nameU="visVersion" v:val="VT0(15):26"/>
				</v:userDefs>
				<v:textBlock v:margins="rect(2,2,2,2)" v:tabSpace="42.5197"/>
				<v:textRect cx="10.0156" cy="240.759" width="20.04" height="10.9211"/>
				<rect x="0" y="235.299" width="20.0311" height="10.9211" rx="2" ry="2" class="st19"/>
				<text x="3.76" y="243.46" class="st20" v:langID="2057"><v:paragraph v:horizAlign="1"/><v:tabList/>DP</text>			</g>
			<g id="shape1199-309" v:mID="1199" v:groupContext="shape" transform="translate(186.682,-115.102)">
				<title>Rectangle.1199</title>
				<desc>DP</desc>
				<v:userDefs>
					<v:ud v:nameU="visVersion" v:val="VT0(15):26"/>
				</v:userDefs>
				<v:textBlock v:margins="rect(2,2,2,2)" v:tabSpace="42.5197"/>
				<v:textRect cx="10.0156" cy="240.759" width="20.04" height="10.9211"/>
				<rect x="0" y="235.299" width="20.0311" height="10.9211" rx="2" ry="2" class="st19"/>
				<text x="3.76" y="243.46" class="st20" v:langID="2057"><v:paragraph v:horizAlign="1"/><v:tabList/>DP</text>			</g>
			<g id="shape1200-312" v:mID="1200" v:groupContext="shape" transform="translate(173.737,-100.287)">
				<title>Rectangle.1200</title>
				<desc>DP</desc>
				<v:userDefs>
					<v:ud v:nameU="visVersion" v:val="VT0(15):26"/>
				</v:userDefs>
				<v:textBlock v:margins="rect(2,2,2,2)" v:tabSpace="42.5197"/>
				<v:textRect cx="10.0156" cy="240.759" width="20.04" height="10.9211"/>
				<rect x="0" y="235.299" width="20.0311" height="10.9211" rx="2" ry="2" class="st19"/>
				<text x="3.76" y="243.46" class="st20" v:langID="2057"><v:paragraph v:horizAlign="1"/><v:tabList/>DP</text>			</g>
			<g id="shape1201-315" v:mID="1201" v:groupContext="shape" transform="translate(341.586,-98.6109)">
				<title>Rectangle.1201</title>
				<desc>DP</desc>
				<v:userDefs>
					<v:ud v:nameU="visVersion" v:val="VT0(15):26"/>
				</v:userDefs>
				<v:textBlock v:margins="rect(2,2,2,2)" v:tabSpace="42.5197"/>
				<v:textRect cx="10.0156" cy="240.759" width="20.04" height="10.9211"/>
				<rect x="0" y="235.299" width="20.0311" height="10.9211" rx="2" ry="2" class="st19"/>
				<text x="3.76" y="243.46" class="st20" v:langID="1033"><v:paragraph v:horizAlign="1"/><v:tabList/>DP</text>			</g>
			<g id="shape1202-318" v:mID="1202" v:groupContext="shape" transform="translate(341.076,-41.7238)">
				<title>Rectangle.1202</title>
				<desc>X</desc>
				<v:userDefs>
					<v:ud v:nameU="visVersion" v:val="VT0(15):26"/>
				</v:userDefs>
				<v:textBlock v:margins="rect(2,2,2,2)" v:tabSpace="42.5197"/>
				<v:textRect cx="10.0156" cy="240.759" width="20.04" height="10.9211"/>
				<rect x="0" y="235.299" width="20.0311" height="10.9211" rx="2" ry="2" class="st21"/>
				<text x="7.01" y="243.46" class="st20" v:langID="1033"><v:paragraph v:horizAlign="1"/><v:tabList/>X</text>			</g>
			<g id="shape1203-321" v:mID="1203" v:groupContext="shape" transform="translate(298.556,-98.6109)">
				<title>Rectangle.1203</title>
				<desc>X</desc>
				<v:userDefs>
					<v:ud v:nameU="visVersion" v:val="VT0(15):26"/>
				</v:userDefs>
				<v:textBlock v:margins="rect(2,2,2,2)" v:tabSpace="42.5197"/>
				<v:textRect cx="10.0156" cy="240.759" width="20.04" height="10.9211"/>
				<rect x="0" y="235.299" width="20.0311" height="10.9211" rx="2" ry="2" class="st21"/>
				<text x="7.01" y="243.46" class="st20" v:langID="1033"><v:paragraph v:horizAlign="1"/><v:tabList/>X</text>			</g>
			<g id="shape1204-324" v:mID="1204" v:groupContext="shape" transform="translate(302.068,-29.8538)">
				<title>Rectangle.1204</title>
				<desc>X</desc>
				<v:userDefs>
					<v:ud v:nameU="visVersion" v:val="VT0(15):26"/>
				</v:userDefs>
				<v:textBlock v:margins="rect(2,2,2,2)" v:tabSpace="42.5197"/>
				<v:textRect cx="10.0156" cy="240.759" width="20.04" height="10.9211"/>
				<rect x="0" y="235.299" width="20.0311" height="10.9211" rx="2" ry="2" class="st21"/>
				<text x="7.01" y="243.46" class="st20" v:langID="1033"><v:paragraph v:horizAlign="1"/><v:tabList/>X</text>			</g>
		</g>
	</g>
</svg>
